# xmcd
#
# Track frame offsets: 
#        150
#        12773
#        32935
#        49877
#        63959
#        91928
#        109927
#        135416
#        153330
#        176740
#        198326
#        218425
#        231483
#        249667
#        264617
#        287238
#        311324
#        330224
#
# Disc length: 4764 seconds
#
# Revision: 2
# Processed by: cddbd v1.5.2PL0 Copyright (c) Steve Scherf et al.
# Submitted via: ExactAudioCopy v0.95b4
#
DISCID=f7129a12
DTITLE=ROBERTO CARLOS - EN VIVO
DYEAR=1900
DGENRE=
TTITLE0=INTRO
TTITLE1=EMOCIONES
TTITLE2=QUÉ SERÁ DE TI
TTITLE3=MAMA Y MESA
TTITLE4=DETALHES
TTITLE5=DESAHOGO
TTITLE6=EL DIA QUE ME QUIERAS
TTITLE7=O CALHAMBEQUE
TTITLE8=MUJER PEQUENA
TTITLE9=ACRÓSTICO
TTITLE10=PROPUESTA
TTITLE11=CONCAVO Y CONVEXO
TTITLE12=LA DISTANCIA
TTITLE13=AMIGO
TTITLE14=JESUS CRISTO
TTITLE15=AMADA AMANTE
TTITLE16=UN GATO EN LA OSCURIDAD
TTITLE17=YO SOLO QUIERO
EXTD=
EXTT0=
EXTT1=
EXTT2=
EXTT3=
EXTT4=
EXTT5=
EXTT6=
EXTT7=
EXTT8=
EXTT9=
EXTT10=
EXTT11=
EXTT12=
EXTT13=
EXTT14=
EXTT15=
EXTT16=
EXTT17=
PLAYORDER=
